<svg width="548" height="155" viewBox="0 0 548 155" fill="none" xmlns="http://www.w3.org/2000/svg">
<path d="M443.817 25.6637C445.043 33.6838 436.661 33.2609 432.358 36.4202L426.73 35.9798C410.323 40.1411 394.665 44.9596 382.914 53.209C381.243 54.9321 381.771 58.5807 378.902 59.2513C374.868 56.5309 379.358 51.0663 376.291 47.3939C377.997 44.7625 382.558 44.6426 384.482 42.2083C375.788 41.5174 366.082 44.8047 359.283 47.6522C367.946 57.1598 385.793 65.7124 379.653 76.7897C378.186 79.4398 373.42 80.1898 373.489 83.1933C373.546 85.7296 379.374 88.4103 379.244 91.0592C379.147 93.022 376.641 93.2974 375.397 94.9956C369.804 102.609 377.867 116.717 371.243 124.022C364.915 118.056 369.458 105.676 367.288 99.1283C366.017 95.2945 361.663 96.3893 357.81 93.6195C356.557 95.333 357.325 98.8201 354.543 99.1904C351.067 98.5582 353.58 94.1307 351.52 92.5976C349.014 91.5117 345.748 90.9118 344.732 88.8883C341.248 88.4516 342.221 91.9336 340.181 92.7698C337.008 92.442 337.371 89.875 336.29 88.2278C333.065 87.6471 332.152 89.0958 329.173 88.7302C327.981 88.3139 329.424 86.2392 327.971 85.9878C324.814 85.0945 325.101 87.2145 322.261 86.6004C322.179 88.8239 324.786 89.3352 324.704 91.5587C317.774 96.8165 323.568 108.995 318.184 114.03C312.394 109.419 317.076 99.2249 311.712 94.7796C307.99 93.9481 308.057 96.4481 304.553 95.8085C301.522 93.8392 300.348 88.7683 295.116 89.7732C294.502 94.5506 295.095 105.02 291.054 110.356C287.243 109.03 285.218 101.208 285.933 98.589C282.719 93.8034 275.61 99.6245 271.945 96.4351C275.397 99.8092 272.896 104.185 269.094 105.746C259.958 100.566 244.101 94.7118 233.462 99.7801C230.679 99.7106 231.486 97.3584 228.703 97.2889C215.945 99.4052 201.943 100.423 189.352 102.685C187.201 102.67 188.163 105.394 186.29 105.623C183.536 105.09 179.566 101.283 176.15 99.533C174.691 93.9313 178.987 91.047 181.36 87.2282C169.553 80.356 152.802 76.6193 138.732 71.1802C138.89 68.8832 138.691 66.2721 140.592 65.4992C155.637 70.8663 167.623 75.0882 187.067 77.6107C188.723 74.7106 190.518 67.4301 187.434 63.8677C180.091 63.0123 179.412 57.9378 173.9 55.9228C173.559 51.8704 174.926 49.3184 178.035 48.3011C184.475 48.2276 186.759 50.7846 191.196 51.9793C187.552 47.2554 178.749 43.9764 173.108 38.9108C167.962 34.2919 159.232 25.1921 162.796 16.9166C164.404 13.1916 171.845 10.2779 178.85 10.7571C196.12 11.939 215.324 24.7558 226.155 30.3492C227.022 24.2462 229.368 21.2146 235.297 22.0599C241.156 22.8945 254.146 35.9029 258.807 38.2011C260.535 33.0394 258.303 25.4703 265.712 22.3211C287.822 12.9331 322.346 35.1322 337.969 39.6282C340.671 35.1307 340.967 31.3507 338.917 27.5195C337.237 24.3848 329.91 22.0476 334.03 17.6028C339.697 11.4887 353.048 19.61 359.232 21.1639C365.591 22.7632 377.001 24.387 385.097 25.3065C408.852 28.0022 429.209 25.0981 443.817 25.6637ZM361.432 38.2859C366.979 37.0462 373.915 37.3241 377.362 33.7059C370.813 32.3724 365.001 29.4864 359.857 31.2768C357.88 31.0268 359.173 28.7073 356.504 28.8957C354.464 29.7319 355.205 33.0104 351.954 32.7771C349.496 32.1663 351.156 28.9434 347.276 29.233C344.629 31.6743 343.391 38.0925 344.177 41.703C350.5 42.1288 356.079 39.4826 361.432 38.2859ZM366.413 83.1693C367.147 81.0285 363.946 79.8723 362.357 80.7332C361.721 82.8021 364.056 82.9954 366.413 83.1693ZM354.036 69.4883C350.619 62.3139 344.039 57.1324 336.236 52.7346C335.322 54.3688 332.237 54.0955 329.077 53.7636C325.796 57.257 317.229 56.1099 314.431 60.0331C326.128 64.1371 339.747 67.0248 354.036 69.4883ZM325.31 47.6422C320.507 44.0671 303.94 42.9456 301.888 48.458C310.204 50.8248 319.116 49.0009 325.31 47.6422ZM287.654 49.4629C289.9 40.9306 300.192 39.4689 308.505 36.2633C300.999 32.0582 281.522 25.3327 271.426 30.7135C273.422 39.1274 280.057 44.5992 287.654 49.4629ZM291.054 69.3273C288.79 65.151 280.087 65.3811 275.368 61.7437C273.886 66.5749 285.911 67.0339 291.054 69.3273ZM281.294 85.5135C281.481 85.115 281.932 84.949 282.742 85.0971C282.285 83.8855 282.557 82.2118 280.879 81.7732C279.583 82.5882 279.843 84.9656 281.294 85.5135ZM274.382 83.3836C275.451 80.8506 270.218 79.7102 268.216 80.7824C269.929 81.8646 272.006 82.721 274.382 83.3836ZM253.556 51.0323C258.947 54.325 261.64 61.8825 269.699 61.8298C267.627 56.4661 260.137 51.8756 253.556 51.0323ZM246.902 72.7584C248.466 73.9348 251.281 74.3193 254.558 74.4168C253.831 72.0399 248.374 72.6617 247.811 70.1811C247.172 70.7456 246.772 71.5194 246.902 72.7584ZM253.03 84.891C251.036 84.1523 249.785 82.9421 248.312 81.8734C224.204 80.7921 213.53 71.2012 196.497 65.6362C194.2 68.4916 194.042 73.2304 193.439 77.5797C201.211 78.5692 222.288 76.1504 212.643 85.4386C200.782 84.966 192.153 87.3259 188.604 94.1513C198.425 93.5584 215.088 94.1684 223.569 90.531C216.311 88.4005 215.962 80.6504 222.283 79.8366C227.974 79.1061 245.259 87.9642 253.03 84.891ZM253.271 63.7224C244.757 53.4053 232.393 41.9024 216.639 34.3718C205.224 28.918 190.396 20.0508 176.121 18.4889C175.271 18.6767 174.48 18.9273 173.928 19.3767C172.997 26.301 178.099 30.6675 182.665 34.3618C198.741 47.3629 227.424 57.9975 253.271 63.7224Z" fill="#27244A"/>
<path d="M176.235 107.485C176.532 110.12 173.707 110.677 172.265 113.001C168.653 118.815 174.031 126.35 168.118 129.918C164.567 125.275 165.593 119.301 165.106 114.03C164.857 111.335 162.178 109.298 162.828 106.966C164.401 101.331 175.651 102.291 176.235 107.485Z" fill="#27244A"/>
<path d="M143.127 96.4193C144.992 84.9705 167.338 98.3562 151.86 102.4C149.94 105.592 152.286 112.523 148.14 113.762C143.491 111.396 146.548 107.599 146.068 104.065C145.806 102.164 142.79 98.464 143.127 96.4193Z" fill="#27244A"/>
<g filter="url(#filter0_ddi_280_27)">
<path d="M80.9372 56.3025C71.9799 55.9171 57.1965 55.8702 50.9244 55.895C49.5083 56.2813 52.7097 56.5719 54.4874 56.6689C76.7738 57.9934 103.468 58.2976 114.029 58.2841C115.793 58.5826 119.104 58.5662 119.271 61.2341L119.07 65.5158C119 65.9327 119.196 66.4783 119.73 66.2782V61.2341C119.498 60.0734 121.483 58.2841 125.99 58.2841C130.497 58.2841 175.416 57.0921 186.626 56.6689L243.34 54.0845C273.809 52.2755 304.267 51.5002 315.687 51.3386L376.836 50.8966C391.437 50.6111 410.889 50.8768 418.789 51.0453C417.025 51.3308 409.482 51.8186 405.93 52.0267L357.299 53.1866L306.833 53.8111C299.827 53.9063 278.018 55.9921 267.99 57.023L239.464 59.9657L208.535 63.2089L202.349 63.774C201.667 65.0825 203.873 65.1519 204.526 65.0825H208.947C210.821 65.0825 213.851 65.0726 214.729 65.0825L226.48 64.1606C229.567 63.8989 251.937 62.8025 262.737 62.287L295.418 61.153C299.123 61.0082 298.265 61.6007 297.374 61.9151C295.783 62.1885 277.122 64.785 267.99 66.0491C265.562 66.3908 265.101 67.2309 265.175 67.6083C265.526 68.3601 266.405 68.178 267.77 68.178H269.558C270.852 68.178 271.948 68.2444 272.96 68.178C274.569 68.178 276.291 68.2089 277.2 68.178L282.153 67.9287C283.37 67.7932 283.507 67.9738 283.37 68.178C280.599 70.3588 278.95 76.6656 278.473 79.5463C278.288 80.6607 277.497 80.426 276.979 80.2134C274.363 78.8364 273.04 77.547 271.667 77.0259L266.225 73.5324C264.048 71.9657 262.772 72.1521 262.407 72.4411C262.072 73.8564 263.82 75.4475 264.736 76.0662C267.221 78.1311 271.385 84.9502 273.157 88.1016C274.531 91.2917 276.133 93.7536 278.027 97.7364C278.027 97.7364 279.69 102.925 281.798 101.587C285.08 99.5033 292.492 91.7709 292.492 91.7709L307.812 76.9328C308.89 75.7195 308.25 75.5204 307.812 75.4908C306.35 75.6009 300.894 77.9515 298.349 79.1131C294.874 80.7637 290.48 82.124 288.717 82.5978C288.113 76.6921 292.117 71.1196 294.194 69.0716C295.78 66.9808 294.1 65.8009 293.061 65.7703C296.169 65.2449 305.408 64.0131 309.639 63.2216C313.869 62.4301 313.534 61.9351 312.996 61.5494C311.61 60.3847 309.125 60.1302 307.812 59.9657C300.046 58.9115 272.078 59.8644 259.066 60.4726C260.151 59.6616 264.18 59.2561 266.059 59.1547L297.374 56.6204C303.887 55.9716 325.835 55.7081 335.995 55.6574C356.119 55.6168 391.004 54.3564 405.93 53.7313C415.689 52.827 432.816 52.3408 442.343 52.1088C443.495 52.0807 443.234 59.0022 444.15 58.984C445.105 58.9713 444.269 52.1742 445.662 52.1088C451.325 51.8429 448.815 66.8057 449.845 66.7874C451.22 66.7629 448.48 51.6755 453.343 51.8127L456.814 51.7508L461.039 51.6755C472.133 51.4462 483.964 51.1244 488.075 50.7658C494.776 50.1814 497.102 49.693 497.427 49.5219C497.232 49.2691 495.678 49.303 494.926 49.3516L432.14 48.9386H315.214C291.631 48.8836 238.397 51.898 214.729 53.412C198.175 54.5132 157.754 55.7978 139.613 56.3025C123.786 56.4631 89.8944 56.6879 80.9372 56.3025Z" fill="url(#paint0_linear_280_27)"/>
</g>
<defs>
<filter id="filter0_ddi_280_27" x="0.572754" y="1.43788" width="546.855" height="152.87" filterUnits="userSpaceOnUse" color-interpolation-filters="sRGB">
<feFlood flood-opacity="0" result="BackgroundImageFix"/>
<feColorMatrix in="SourceAlpha" type="matrix" values="0 0 0 0 0 0 0 0 0 0 0 0 0 0 0 0 0 0 127 0" result="hardAlpha"/>
<feOffset dy="2.5"/>
<feGaussianBlur stdDeviation="25"/>
<feComposite in2="hardAlpha" operator="out"/>
<feColorMatrix type="matrix" values="0 0 0 0 0.839216 0 0 0 0 0.243137 0 0 0 0 0.0901961 0 0 0 1 0"/>
<feBlend mode="normal" in2="BackgroundImageFix" result="effect1_dropShadow_280_27"/>
<feColorMatrix in="SourceAlpha" type="matrix" values="0 0 0 0 0 0 0 0 0 0 0 0 0 0 0 0 0 0 127 0" result="hardAlpha"/>
<feOffset dy="1.5"/>
<feComposite in2="hardAlpha" operator="out"/>
<feColorMatrix type="matrix" values="0 0 0 0 0.839216 0 0 0 0 0.243137 0 0 0 0 0.0901961 0 0 0 1 0"/>
<feBlend mode="normal" in2="effect1_dropShadow_280_27" result="effect2_dropShadow_280_27"/>
<feBlend mode="normal" in="SourceGraphic" in2="effect2_dropShadow_280_27" result="shape"/>
<feColorMatrix in="SourceAlpha" type="matrix" values="0 0 0 0 0 0 0 0 0 0 0 0 0 0 0 0 0 0 127 0" result="hardAlpha"/>
<feOffset dy="1.5"/>
<feComposite in2="hardAlpha" operator="arithmetic" k2="-1" k3="1"/>
<feColorMatrix type="matrix" values="0 0 0 0 1 0 0 0 0 1 0 0 0 0 0.486275 0 0 0 1 0"/>
<feBlend mode="normal" in2="shape" result="effect3_innerShadow_280_27"/>
</filter>
<linearGradient id="paint0_linear_280_27" x1="280.662" y1="103.03" x2="280.662" y2="48.9379" gradientUnits="userSpaceOnUse">
<stop stop-color="#FF8E00"/>
<stop offset="1" stop-color="#FFCE2E"/>
</linearGradient>
</defs>
</svg>
